<svg width="19" height="19" viewBox="0 0 19 19" fill="none" xmlns="http://www.w3.org/2000/svg">
<path d="M14.0303 10.9091C13.833 11.1003 13.7424 11.3767 13.7873 11.6479L14.4644 15.395C14.5215 15.7126 14.3875 16.034 14.1217 16.2176C13.8612 16.408 13.5147 16.4308 13.2306 16.2785L9.85741 14.5192C9.74012 14.4567 9.60989 14.4232 9.4766 14.4194H9.27021C9.19862 14.4301 9.12855 14.4529 9.06457 14.488L5.69065 16.2557C5.52385 16.3394 5.33497 16.3691 5.1499 16.3394C4.69903 16.2541 4.39819 15.8246 4.47207 15.3714L5.1499 11.6243C5.19484 11.3509 5.10421 11.0729 4.90695 10.8786L2.15678 8.21299C1.92677 7.98983 1.8468 7.65472 1.95191 7.35236C2.05396 7.05076 2.31443 6.83065 2.62898 6.78115L6.41417 6.23202C6.70206 6.20232 6.95492 6.02715 7.08439 5.7682L8.75231 2.34854C8.79192 2.27238 8.84295 2.20231 8.90464 2.1429L8.97318 2.08959C9.00898 2.04998 9.0501 2.01723 9.0958 1.99058L9.17882 1.96011L9.30829 1.9068H9.62893C9.91529 1.9365 10.1674 2.10787 10.2991 2.36377L11.9892 5.7682C12.111 6.01725 12.3479 6.19013 12.6213 6.23202L16.4065 6.78115C16.7264 6.82685 16.9937 7.04771 17.0996 7.35236C17.1993 7.65777 17.1133 7.99288 16.8787 8.21299L14.0303 10.9091Z" fill="#F6B76F"/>
</svg>
